<svg xmlns="http://www.w3.org/2000/svg" xmlns:xlink="http://www.w3.org/1999/xlink" version="1.1" id="Calque_1" x="0px" y="0px" viewBox="0 0 500 400" style="enable-background:new 0 0 500 400;" xml:space="preserve">
	<style type="text/css">
		.st1{fill:#2B3177;}
		.st4{fill:#D3A574;}
		.st5{fill:#E4F1F2;}
		.st6{fill:url(#SVGID_1_);}
		.st7{fill:url(#SVGID_2_);}
		.st8{fill:url(#SVGID_3_);}
		.st9{fill:url(#SVGID_4_);}
		.st10{fill:url(#SVGID_5_);}
		.st11{fill:url(#SVGID_6_);}
		.st12{fill:url(#SVGID_7_);}
		.st13{fill:url(#SVGID_8_);}
		.st14{fill:url(#SVGID_9_);}
		.st15{fill:url(#SVGID_10_);}
		.st16{fill:url(#SVGID_11_);}
		.st17{fill:url(#SVGID_12_);}
		.st18{fill:url(#SVGID_13_);}
		.st19{fill:url(#SVGID_14_);}
		.st20{fill:url(#SVGID_15_);}
		.st21{fill:url(#SVGID_16_);}
		.st22{fill:url(#SVGID_17_);}
		.st23{fill:none;stroke:#0098B0;stroke-miterlimit:10;}
		.st24{fill:#0098B0;}
	</style>
	<g>
		<rect x="288.73" y="272.31" class="st4" width="26.12" height="46.43" />
		<rect x="288.73" y="272.43" class="st1" width="26.12" height="46.31" />
		<rect x="288.73" y="241.84" class="st1" width="26.12" height="22.96" />
		<g>
			<path class="st1" d="M376.39,97.32v279.86h-265v-29.59c0-10.41,8.25-18.85,18.43-18.85h199.2V145.8     c0-17.47-13.85-31.63-30.93-31.63H168.86V84.56c0-10.4,8.24-18.83,18.42-18.83h158.21C362.56,65.72,376.39,79.87,376.39,97.32z" />
			<path class="st1" d="M189.69,58.1l129.41-0.94l32.35-0.15c11.16-0.63,22.37,5.25,28.47,14.35c3.19,4.48,5.1,9.75,5.88,15.12     c0.41,2.7,0.38,5.44,0.4,8.02l0.04,7.87l0.05,31.48l0.2,125.91l-0.17,125.91l0,1.45l-1.49-0.01l-136.72-0.47l-136.72-0.98     l136.72-0.98l136.72-0.47l-1.49,1.45l-0.17-125.91l0.2-125.91l0.05-31.48l0.04-7.87c0.01-2.66,0.06-5.19-0.3-7.68     c-0.68-4.99-2.4-9.91-5.33-14.1c-5.65-8.5-15.79-14.03-26.36-13.54l-32.35-0.15L189.69,58.1z" />
		</g>
		<path class="st5" d="M158.44,313.2" />
		<linearGradient id="SVGID_1_" gradientUnits="userSpaceOnUse" x1="192.4991" y1="295.6424" x2="219.0121" y2="295.6424">
			<stop offset="0" style="stop-color:#0098B0" />
			<stop offset="0.1338" style="stop-color:#1C9AB1" />
			<stop offset="0.2913" style="stop-color:#3FA1B7" />
			<stop offset="0.4608" style="stop-color:#64ADC0" />
			<stop offset="0.6388" style="stop-color:#8DBFCD" />
			<stop offset="0.8214" style="stop-color:#B8D6DE" />
			<stop offset="1" style="stop-color:#E4F1F2" />
		</linearGradient>
		<path class="st6" d="M192.5,318.74c0,0,16.02-9.55,20.76-46.19c0,0,5.75,19.36,5.75,46.19H192.5z" />
		<linearGradient id="SVGID_2_" gradientUnits="userSpaceOnUse" x1="194.5236" y1="284.739" x2="211.874" y2="284.739">
			<stop offset="0" style="stop-color:#2B3177" />
			<stop offset="0.0154" style="stop-color:#2A4280" />
			<stop offset="0.035" style="stop-color:#23578C" />
			<stop offset="0.0572" style="stop-color:#1A6996" />
			<stop offset="0.0816" style="stop-color:#10789F" />
			<stop offset="0.1093" style="stop-color:#0684A6" />
			<stop offset="0.1415" style="stop-color:#018DAA" />
			<stop offset="0.1814" style="stop-color:#0093AD" />
			<stop offset="0.2374" style="stop-color:#0097AF" />
			<stop offset="0.3927" style="stop-color:#0098B0" />
			<stop offset="0.9749" style="stop-color:#FFFFFF" />
		</linearGradient>
		<path class="st7" d="M211.87,272.29l-17.35,24.91C194.53,297.19,193.99,279.88,211.87,272.29z" />
		<linearGradient id="SVGID_3_" gradientUnits="userSpaceOnUse" x1="160.6745" y1="276.9623" x2="212.0407" y2="276.9623">
			<stop offset="0" style="stop-color:#0098B0" />
			<stop offset="0.1338" style="stop-color:#1C9AB1" />
			<stop offset="0.2913" style="stop-color:#3FA1B7" />
			<stop offset="0.4608" style="stop-color:#64ADC0" />
			<stop offset="0.6388" style="stop-color:#8DBFCD" />
			<stop offset="0.8214" style="stop-color:#B8D6DE" />
			<stop offset="1" style="stop-color:#E4F1F2" />
		</linearGradient>
		<path class="st8" d="M212.04,268.35c0,0-39.79,7.98-51.37,20.8C160.67,289.15,177.25,253.62,212.04,268.35z" />
		<linearGradient id="SVGID_4_" gradientUnits="userSpaceOnUse" x1="158.6156" y1="255.6145" x2="211.8253" y2="255.6145">
			<stop offset="0" style="stop-color:#0098B0" />
			<stop offset="0.1338" style="stop-color:#1C9AB1" />
			<stop offset="0.2913" style="stop-color:#3FA1B7" />
			<stop offset="0.4608" style="stop-color:#64ADC0" />
			<stop offset="0.6388" style="stop-color:#8DBFCD" />
			<stop offset="0.8214" style="stop-color:#B8D6DE" />
			<stop offset="1" style="stop-color:#E4F1F2" />
		</linearGradient>
		<path class="st9" d="M211.83,262.92c0,0-18.87-3.87-35.37-5.03c-6.86-0.48-13.32-0.5-17.84,0.43    C158.62,258.32,192.67,232.98,211.83,262.92z" />
		<linearGradient id="SVGID_5_" gradientUnits="userSpaceOnUse" x1="-866.3072" y1="303.9359" x2="-813.6943" y2="303.9359" gradientTransform="matrix(-0.9963 0.0865 0.0865 0.9963 -678.221 28.9528)">
			<stop offset="0" style="stop-color:#2B3177" />
			<stop offset="0.0154" style="stop-color:#2A4280" />
			<stop offset="0.035" style="stop-color:#23578C" />
			<stop offset="0.0572" style="stop-color:#1A6996" />
			<stop offset="0.0816" style="stop-color:#10789F" />
			<stop offset="0.1093" style="stop-color:#0684A6" />
			<stop offset="0.1415" style="stop-color:#018DAA" />
			<stop offset="0.1814" style="stop-color:#0093AD" />
			<stop offset="0.2374" style="stop-color:#0097AF" />
			<stop offset="0.3927" style="stop-color:#0098B0" />
			<stop offset="0.9749" style="stop-color:#FFFFFF" />
		</linearGradient>
		<path class="st10" d="M211.65,262.94c0,0-35.65-16.54-53.21-4.6C158.44,258.34,175.05,256.69,211.65,262.94z" />
		<linearGradient id="SVGID_6_" gradientUnits="userSpaceOnUse" x1="-866.1208" y1="323.0959" x2="-813.7308" y2="323.0959" gradientTransform="matrix(-0.9963 0.0865 0.0865 0.9963 -678.221 28.9528)">
			<stop offset="0" style="stop-color:#2B3177" />
			<stop offset="0.0154" style="stop-color:#2A4280" />
			<stop offset="0.035" style="stop-color:#23578C" />
			<stop offset="0.0572" style="stop-color:#1A6996" />
			<stop offset="0.0816" style="stop-color:#10789F" />
			<stop offset="0.1093" style="stop-color:#0684A6" />
			<stop offset="0.1415" style="stop-color:#018DAA" />
			<stop offset="0.1814" style="stop-color:#0093AD" />
			<stop offset="0.2374" style="stop-color:#0097AF" />
			<stop offset="0.3927" style="stop-color:#0098B0" />
			<stop offset="0.9749" style="stop-color:#FFFFFF" />
		</linearGradient>
		<path class="st11" d="M211.93,268.34c0,0-37.36-2.11-50.82,20.35C161.11,288.7,189.88,272.62,211.93,268.34z" />
		<linearGradient id="SVGID_7_" gradientUnits="userSpaceOnUse" x1="187.0231" y1="281.2958" x2="202.469" y2="281.2958">
			<stop offset="0" style="stop-color:#0098B0" />
			<stop offset="0.1338" style="stop-color:#1C9AB1" />
			<stop offset="0.2913" style="stop-color:#3FA1B7" />
			<stop offset="0.4608" style="stop-color:#64ADC0" />
			<stop offset="0.6388" style="stop-color:#8DBFCD" />
			<stop offset="0.8214" style="stop-color:#B8D6DE" />
			<stop offset="1" style="stop-color:#E4F1F2" />
		</linearGradient>
		<path class="st12" d="M202.47,274.67l-15.45,13.25C187.02,287.92,188.44,278.73,202.47,274.67z" />
		<linearGradient id="SVGID_8_" gradientUnits="userSpaceOnUse" x1="178.0825" y1="240.9005" x2="211.5798" y2="240.9005">
			<stop offset="0" style="stop-color:#0098B0" />
			<stop offset="0.1338" style="stop-color:#1C9AB1" />
			<stop offset="0.2913" style="stop-color:#3FA1B7" />
			<stop offset="0.4608" style="stop-color:#64ADC0" />
			<stop offset="0.6388" style="stop-color:#8DBFCD" />
			<stop offset="0.8214" style="stop-color:#B8D6DE" />
			<stop offset="1" style="stop-color:#E4F1F2" />
		</linearGradient>
		<path class="st13" d="M211.41,256.49c0,0-19.38-27.48-33.32-31.17C178.08,225.31,214.38,224.82,211.41,256.49z" />
		<linearGradient id="SVGID_9_" gradientUnits="userSpaceOnUse" x1="-866.4781" y1="286.0956" x2="-836.1203" y2="286.0956" gradientTransform="matrix(-0.9963 0.0865 0.0865 0.9963 -678.221 28.9528)">
			<stop offset="0" style="stop-color:#2B3177" />
			<stop offset="0.0154" style="stop-color:#2A4280" />
			<stop offset="0.035" style="stop-color:#23578C" />
			<stop offset="0.0572" style="stop-color:#1A6996" />
			<stop offset="0.0816" style="stop-color:#10789F" />
			<stop offset="0.1093" style="stop-color:#0684A6" />
			<stop offset="0.1415" style="stop-color:#018DAA" />
			<stop offset="0.1814" style="stop-color:#0093AD" />
			<stop offset="0.2374" style="stop-color:#0097AF" />
			<stop offset="0.3927" style="stop-color:#0098B0" />
			<stop offset="0.9749" style="stop-color:#FFFFFF" />
		</linearGradient>
		<path class="st14" d="M211.17,255.44c0,0-10.51-28.11-33.09-30.12C178.08,225.31,206.49,251.02,211.17,255.44z" />
		<linearGradient id="SVGID_10_" gradientUnits="userSpaceOnUse" x1="-928.9159" y1="240.9005" x2="-895.4185" y2="240.9005" gradientTransform="matrix(-1 0 0 1 -680.9394 0)">
			<stop offset="0" style="stop-color:#0098B0" />
			<stop offset="0.1338" style="stop-color:#1C9AB1" />
			<stop offset="0.2913" style="stop-color:#3FA1B7" />
			<stop offset="0.4608" style="stop-color:#64ADC0" />
			<stop offset="0.6388" style="stop-color:#8DBFCD" />
			<stop offset="0.8214" style="stop-color:#B8D6DE" />
			<stop offset="1" style="stop-color:#E4F1F2" />
		</linearGradient>
		<path class="st15" d="M214.65,256.49c0,0,19.38-27.48,33.32-31.17C247.98,225.31,211.68,224.82,214.65,256.49z" />
		<linearGradient id="SVGID_11_" gradientUnits="userSpaceOnUse" x1="236.3752" y1="190.3879" x2="266.7331" y2="190.3879" gradientTransform="matrix(0.9963 0.0865 -0.0865 0.9963 -2.7184 28.9528)">
			<stop offset="0" style="stop-color:#2B3177" />
			<stop offset="0.0154" style="stop-color:#2A4280" />
			<stop offset="0.035" style="stop-color:#23578C" />
			<stop offset="0.0572" style="stop-color:#1A6996" />
			<stop offset="0.0816" style="stop-color:#10789F" />
			<stop offset="0.1093" style="stop-color:#0684A6" />
			<stop offset="0.1415" style="stop-color:#018DAA" />
			<stop offset="0.1814" style="stop-color:#0093AD" />
			<stop offset="0.2374" style="stop-color:#0097AF" />
			<stop offset="0.3927" style="stop-color:#0098B0" />
			<stop offset="0.9749" style="stop-color:#FFFFFF" />
		</linearGradient>
		<path class="st16" d="M214.89,255.44c0,0,10.51-28.11,33.09-30.12C247.98,225.31,219.57,251.02,214.89,255.44z" />
		<linearGradient id="SVGID_12_" gradientUnits="userSpaceOnUse" x1="214.0999" y1="284.739" x2="231.4503" y2="284.739">
			<stop offset="0" style="stop-color:#2B3177" />
			<stop offset="0.0154" style="stop-color:#2A4280" />
			<stop offset="0.035" style="stop-color:#23578C" />
			<stop offset="0.0572" style="stop-color:#1A6996" />
			<stop offset="0.0816" style="stop-color:#10789F" />
			<stop offset="0.1093" style="stop-color:#0684A6" />
			<stop offset="0.1415" style="stop-color:#018DAA" />
			<stop offset="0.1814" style="stop-color:#0093AD" />
			<stop offset="0.2374" style="stop-color:#0097AF" />
			<stop offset="0.3927" style="stop-color:#0098B0" />
			<stop offset="0.9749" style="stop-color:#FFFFFF" />
		</linearGradient>
		<path class="st17" d="M214.1,272.29l17.35,24.91C231.45,297.19,231.98,279.88,214.1,272.29z" />
		<linearGradient id="SVGID_13_" gradientUnits="userSpaceOnUse" x1="-941.072" y1="276.9623" x2="-889.7057" y2="276.9623" gradientTransform="matrix(-1 0 0 1 -675.7726 0)">
			<stop offset="0" style="stop-color:#0098B0" />
			<stop offset="0.1338" style="stop-color:#1C9AB1" />
			<stop offset="0.2913" style="stop-color:#3FA1B7" />
			<stop offset="0.4608" style="stop-color:#64ADC0" />
			<stop offset="0.6388" style="stop-color:#8DBFCD" />
			<stop offset="0.8214" style="stop-color:#B8D6DE" />
			<stop offset="1" style="stop-color:#E4F1F2" />
		</linearGradient>
		<path class="st18" d="M213.93,268.35c0,0,39.79,7.98,51.37,20.8C265.3,289.15,248.72,253.62,213.93,268.35z" />
		<linearGradient id="SVGID_14_" gradientUnits="userSpaceOnUse" x1="-940.5967" y1="284.8163" x2="-887.387" y2="284.8163" gradientTransform="matrix(-0.9998 -1.838893e-03 1.838893e-03 0.9788 -673.634 -24.6436)">
			<stop offset="0" style="stop-color:#0098B0" />
			<stop offset="0.1338" style="stop-color:#1C9AB1" />
			<stop offset="0.2913" style="stop-color:#3FA1B7" />
			<stop offset="0.4608" style="stop-color:#64ADC0" />
			<stop offset="0.6388" style="stop-color:#8DBFCD" />
			<stop offset="0.8214" style="stop-color:#B8D6DE" />
			<stop offset="1" style="stop-color:#E4F1F2" />
		</linearGradient>
		<path class="st19" d="M214.15,262.92c0,0,18.86-3.75,35.35-4.86c6.86-0.46,13.32-0.46,17.84,0.45    C267.34,258.52,233.25,233.65,214.15,262.92z" />
		<linearGradient id="SVGID_15_" gradientUnits="userSpaceOnUse" x1="231.3139" y1="208.6822" x2="283.9268" y2="208.6822" gradientTransform="matrix(0.9963 0.0865 -0.0865 0.9963 2.4484 28.9528)">
			<stop offset="0" style="stop-color:#2B3177" />
			<stop offset="0.0154" style="stop-color:#2A4280" />
			<stop offset="0.035" style="stop-color:#23578C" />
			<stop offset="0.0572" style="stop-color:#1A6996" />
			<stop offset="0.0816" style="stop-color:#10789F" />
			<stop offset="0.1093" style="stop-color:#0684A6" />
			<stop offset="0.1415" style="stop-color:#018DAA" />
			<stop offset="0.1814" style="stop-color:#0093AD" />
			<stop offset="0.2374" style="stop-color:#0097AF" />
			<stop offset="0.3927" style="stop-color:#0098B0" />
			<stop offset="0.9749" style="stop-color:#FFFFFF" />
		</linearGradient>
		<path class="st20" d="M214.33,262.94c0,0,35.65-16.54,53.21-4.6C267.54,258.34,250.92,256.69,214.33,262.94z" />
		<linearGradient id="SVGID_16_" gradientUnits="userSpaceOnUse" x1="231.5002" y1="227.8421" x2="283.8902" y2="227.8421" gradientTransform="matrix(0.9963 0.0865 -0.0865 0.9963 2.4484 28.9528)">
			<stop offset="0" style="stop-color:#2B3177" />
			<stop offset="0.0154" style="stop-color:#2A4280" />
			<stop offset="0.035" style="stop-color:#23578C" />
			<stop offset="0.0572" style="stop-color:#1A6996" />
			<stop offset="0.0816" style="stop-color:#10789F" />
			<stop offset="0.1093" style="stop-color:#0684A6" />
			<stop offset="0.1415" style="stop-color:#018DAA" />
			<stop offset="0.1814" style="stop-color:#0093AD" />
			<stop offset="0.2374" style="stop-color:#0097AF" />
			<stop offset="0.3927" style="stop-color:#0098B0" />
			<stop offset="0.9749" style="stop-color:#FFFFFF" />
		</linearGradient>
		<path class="st21" d="M214.04,268.34c0,0,37.36-2.11,50.82,20.35C264.86,288.7,236.09,272.62,214.04,268.34z" />
		<linearGradient id="SVGID_17_" gradientUnits="userSpaceOnUse" x1="-914.7234" y1="281.2958" x2="-899.2775" y2="281.2958" gradientTransform="matrix(-1 0 0 1 -675.7726 0)">
			<stop offset="0" style="stop-color:#0098B0" />
			<stop offset="0.1338" style="stop-color:#1C9AB1" />
			<stop offset="0.2913" style="stop-color:#3FA1B7" />
			<stop offset="0.4608" style="stop-color:#64ADC0" />
			<stop offset="0.6388" style="stop-color:#8DBFCD" />
			<stop offset="0.8214" style="stop-color:#B8D6DE" />
			<stop offset="1" style="stop-color:#E4F1F2" />
		</linearGradient>
		<path class="st22" d="M223.5,274.67l15.45,13.25C238.95,287.92,237.54,278.73,223.5,274.67z" />
		<path class="st23" d="M158.91,196.75" />
		<path class="st24" d="M284.4,123.6H158.35V28.76c0-10.66-8.2-19.29-18.31-19.29h-28.65v289.51c0,10.92,8.4,19.77,18.76,19.77h7.87    V213.37h0.07v-16.45h0.11v-0.12h6.26v0.08h0.44v-0.1h4.8v0.03h6.99l2.22-0.04c0,0,3.4-56.34,58.39-54.66c0,0,47.01,0.93,51,54.66    l13.13,0.12h5.83v0h1.63v38.53l2.92-0.01l23.18,0.11v-79.66C314.99,138.03,301.3,123.6,284.4,123.6z" />
	</g>
</svg>
